<svg width="36" height="36" viewBox="0 0 36 36" fill="none" xmlns="http://www.w3.org/2000/svg">
<g clip-path="url(#clip0_11_20)">
<path d="M27.7495 25.69L26.3345 10.9799C26.1898 9.43184 25.6444 7.94957 24.7531 6.68224C23.8619 5.41491 22.6563 4.40722 21.2576 3.76053C21.2312 2.77538 20.8256 1.83953 20.1271 1.15216C19.4286 0.464785 18.4923 0.0801697 17.5176 0.0801697C16.5428 0.0801697 15.6066 0.464785 14.9081 1.15216C14.2096 1.83953 13.804 2.77538 13.7776 3.76053C12.3793 4.4086 11.1742 5.41703 10.2831 6.68466C9.39201 7.95228 8.84627 9.43453 8.70064 10.9827L7.28018 25.7066C6.26121 25.8088 5.31613 26.2901 4.62834 27.0571C3.94055 27.824 3.55909 28.822 3.55798 29.8573V30.9281C3.55798 31.1483 3.64449 31.3594 3.79847 31.5151C3.95245 31.6708 4.16129 31.7583 4.37906 31.7583H11.5771C12.1377 32.8628 12.9887 33.7895 14.0365 34.4366C15.0843 35.0838 16.2884 35.4262 17.5162 35.4262C18.7441 35.4262 19.9481 35.0838 20.996 34.4366C22.0438 33.7895 22.8948 32.8628 23.4553 31.7583H30.6534C30.8711 31.7583 31.08 31.6708 31.234 31.5151C31.388 31.3594 31.4745 31.1483 31.4745 30.9281V29.6359C31.4715 28.621 31.0835 27.646 30.3904 26.9118C29.6974 26.1776 28.7521 25.7403 27.7495 25.69ZM17.5162 1.66028C17.9669 1.65961 18.4059 1.80562 18.7682 2.07671C19.1304 2.34781 19.3968 2.72959 19.5278 3.16559C18.2047 2.86018 16.8305 2.86018 15.5073 3.16559C15.6382 2.73004 15.9042 2.34859 16.2659 2.07754C16.6276 1.80648 17.066 1.6602 17.5162 1.66028ZM17.5162 33.7589C16.7402 33.76 15.9745 33.5791 15.2793 33.2306C14.584 32.882 13.9782 32.3752 13.5094 31.75H21.5258C21.0574 32.3764 20.4513 32.884 19.7554 33.2326C19.0595 33.5813 18.2929 33.7615 17.5162 33.7589ZM29.8323 30.0897H5.20013V29.849C5.20663 29.1852 5.47236 28.551 5.9394 28.0845C6.40644 27.618 7.03693 27.3571 7.69345 27.3585H8.02736C8.23204 27.3595 8.4297 27.2832 8.58159 27.1444C8.73348 27.0057 8.82865 26.8146 8.84843 26.6087L10.3346 11.1543C10.4583 9.81248 10.9513 8.53255 11.7576 7.45952C12.564 6.3865 13.6516 5.5633 14.897 5.08321H14.9244C16.591 4.45082 18.4278 4.45082 20.0944 5.08321L20.182 5.11642C21.4123 5.60011 22.4859 6.41916 23.2836 7.48258C24.0813 8.546 24.5718 9.81217 24.7006 11.1404L26.1867 26.5948C26.2065 26.8008 26.3017 26.9919 26.4536 27.1306C26.6055 27.2693 26.8031 27.3457 27.0078 27.3447H27.5552C28.1575 27.344 28.7354 27.5848 29.1623 28.0143C29.5892 28.4438 29.8301 29.027 29.8323 29.6359V30.0897Z" fill="white"/>
</g>
<defs>
<clipPath id="clip0_11_20">
<rect width="35.0324" height="35.4192" fill="white"/>
</clipPath>
</defs>
</svg>
