<svg width="40" height="40" viewBox="0 0 40 40" fill="none" xmlns="http://www.w3.org/2000/svg">
<path d="M32.6 8.75C32.6 8.75 27.5 7.85 26.05 7.35C24.0007 6.78252 22.0845 5.81379 20.4125 4.5C20.3014 4.39269 20.1544 4.33035 20 4.325C19.8329 4.32208 19.6713 4.38493 19.55 4.5C17.8942 5.82448 15.9838 6.79455 13.9375 7.35C12.5 7.85 7.5 8.75 7.4 8.75C7.25424 8.77363 7.12155 8.84809 7.02545 8.96021C6.92935 9.07232 6.87605 9.21484 6.875 9.3625C6.875 19.4875 7 24.1625 10.1 28.925C12.75 33 19.475 35.475 19.7625 35.5875C19.8327 35.6004 19.9048 35.6004 19.975 35.5875H20.1875C20.475 35.475 27.25 33 29.9 28.925C33 24.1625 33.125 19.4875 33.125 9.3625C33.1239 9.21484 33.0706 9.07232 32.9746 8.96021C32.8785 8.84809 32.7458 8.77363 32.6 8.75ZM28.85 28.25C26.675 31.5875 21.125 33.875 19.975 34.325C18.825 33.875 13.325 31.5875 11.15 28.25C8.4 24.025 8.1375 20.25 8.125 9.8875C10.229 9.582 12.3153 9.16475 14.375 8.6375C16.3905 7.98321 18.2891 7.01277 20 5.7625C21.73 6.97931 23.6409 7.9158 25.6625 8.5375C27.7222 9.06461 29.8085 9.48186 31.9125 9.7875C31.8625 20.2 31.6 23.975 28.85 28.2V28.25Z" fill="white"/>
<path d="M14.15 20.5875C14.0889 20.5332 14.0175 20.4916 13.9401 20.4653C13.8627 20.439 13.7808 20.4284 13.6993 20.4342C13.6177 20.4401 13.5382 20.4622 13.4653 20.4992C13.3924 20.5363 13.3277 20.5875 13.275 20.65C13.1692 20.7784 13.1178 20.9432 13.1318 21.109C13.1458 21.2748 13.2241 21.4286 13.35 21.5375L19.6 26.875C19.7098 26.9734 19.8525 27.027 20 27.025H20.0875C20.1756 27.0122 20.26 26.9812 20.3353 26.9338C20.4107 26.8864 20.4753 26.8238 20.525 26.75L27.8 16.075C27.8945 15.9374 27.9304 15.7679 27.8999 15.6038C27.8695 15.4397 27.7751 15.2945 27.6375 15.2C27.4999 15.1055 27.3304 15.0696 27.1663 15.1C27.0022 15.1305 26.857 15.2249 26.7625 15.3625L19.875 25.475L14.15 20.5875Z" fill="white"/>
</svg>
