<svg width="40" height="40" viewBox="0 0 40 40" fill="none" xmlns="http://www.w3.org/2000/svg">
<path d="M27.2292 35.2542H12.7709C12.6603 35.2542 12.5544 35.2103 12.4762 35.1321C12.3981 35.054 12.3542 34.948 12.3542 34.8375C12.3542 34.727 12.3981 34.621 12.4762 34.5429C12.5544 34.4647 12.6603 34.4208 12.7709 34.4208H27.2292C27.3397 34.4208 27.4457 34.4647 27.5238 34.5429C27.602 34.621 27.6459 34.727 27.6459 34.8375C27.6459 34.948 27.602 35.054 27.5238 35.1321C27.4457 35.2103 27.3397 35.2542 27.2292 35.2542Z" fill="white"/>
<path d="M37.0833 31.8292H2.91665C2.36411 31.8292 1.83421 31.6097 1.44351 31.219C1.05281 30.8283 0.833313 30.2984 0.833313 29.7458V6.82915C0.833313 6.27662 1.05281 5.74671 1.44351 5.35601C1.83421 4.96531 2.36411 4.74582 2.91665 4.74582H37.0833C37.6358 4.74582 38.1658 4.96531 38.5565 5.35601C38.9472 5.74671 39.1666 6.27662 39.1666 6.82915V29.7458C39.1666 30.2984 38.9472 30.8283 38.5565 31.219C38.1658 31.6097 37.6358 31.8292 37.0833 31.8292ZM2.91665 5.57915C2.58513 5.57915 2.26718 5.71085 2.03276 5.94527C1.79834 6.17969 1.66665 6.49763 1.66665 6.82915V29.7458C1.66665 30.0773 1.79834 30.3953 2.03276 30.6297C2.26718 30.8641 2.58513 30.9958 2.91665 30.9958H37.0833C37.4148 30.9958 37.7328 30.8641 37.9672 30.6297C38.2016 30.3953 38.3333 30.0773 38.3333 29.7458V6.82915C38.3333 6.49763 38.2016 6.17969 37.9672 5.94527C37.7328 5.71085 37.4148 5.57915 37.0833 5.57915H2.91665Z" fill="white"/>
<path d="M24.7167 35.2542H15.2833C15.2113 35.2536 15.1406 35.2344 15.0781 35.1984C15.0157 35.1624 14.9637 35.1108 14.9272 35.0487C14.8906 34.9865 14.8708 34.916 14.8697 34.8439C14.8686 34.7718 14.8862 34.7007 14.9208 34.6375L16.825 31.2125C16.861 31.1467 16.914 31.0919 16.9786 31.0538C17.0431 31.0156 17.1167 30.9956 17.1917 30.9958H22.8083C22.8833 30.9956 22.9569 31.0156 23.0214 31.0538C23.086 31.0919 23.139 31.1467 23.175 31.2125L25.0792 34.6375C25.1138 34.7007 25.1314 34.7718 25.1303 34.8439C25.1292 34.916 25.1094 34.9865 25.0728 35.0487C25.0363 35.1108 24.9843 35.1624 24.9219 35.1984C24.8594 35.2344 24.7887 35.2536 24.7167 35.2542ZM15.9917 34.4208H24.0083L22.5667 31.8292H17.4333L15.9917 34.4208Z" fill="white"/>
<path d="M38.75 28.025H1.24998C1.13947 28.025 1.03349 27.9811 0.955352 27.903C0.877212 27.8248 0.833313 27.7189 0.833313 27.6083C0.833313 27.4978 0.877212 27.3919 0.955352 27.3137C1.03349 27.2356 1.13947 27.1917 1.24998 27.1917H38.75C38.8605 27.1917 38.9665 27.2356 39.0446 27.3137C39.1227 27.3919 39.1666 27.4978 39.1666 27.6083C39.1666 27.7189 39.1227 27.8248 39.0446 27.903C38.9665 27.9811 38.8605 28.025 38.75 28.025Z" fill="white"/>
<path d="M11.6666 24.7708H4.42082C4.31031 24.7708 4.20433 24.7269 4.12619 24.6488C4.04805 24.5707 4.00415 24.4647 4.00415 24.3542C4.00415 24.2437 4.04805 24.1377 4.12619 24.0595C4.20433 23.9814 4.31031 23.9375 4.42082 23.9375H11.6666C11.7772 23.9375 11.8831 23.9814 11.9613 24.0595C12.0394 24.1377 12.0833 24.2437 12.0833 24.3542C12.0833 24.4647 12.0394 24.5707 11.9613 24.6488C11.8831 24.7269 11.7772 24.7708 11.6666 24.7708Z" fill="white"/>
<path d="M8.04998 22.4375H4.42082C4.31031 22.4375 4.20433 22.3936 4.12619 22.3155C4.04805 22.2373 4.00415 22.1313 4.00415 22.0208C4.00415 21.9103 4.04805 21.8043 4.12619 21.7262C4.20433 21.6481 4.31031 21.6042 4.42082 21.6042H8.04998C8.16049 21.6042 8.26647 21.6481 8.34461 21.7262C8.42275 21.8043 8.46665 21.9103 8.46665 22.0208C8.46665 22.1313 8.42275 22.2373 8.34461 22.3155C8.26647 22.3936 8.16049 22.4375 8.04998 22.4375Z" fill="white"/>
<path d="M4.85831 15.9625C4.78936 15.9633 4.72129 15.947 4.6602 15.915C4.59912 15.883 4.54693 15.8363 4.50831 15.7792C4.03028 15.0626 3.75572 14.2297 3.71392 13.3693C3.67212 12.509 3.86466 11.6534 4.27099 10.8939C4.67732 10.1343 5.2822 9.49936 6.02112 9.05666C6.76003 8.61395 7.60526 8.38013 8.46665 8.38013C9.32803 8.38013 10.1733 8.61395 10.9122 9.05666C11.6511 9.49936 12.256 10.1343 12.6623 10.8939C13.0686 11.6534 13.2612 12.509 13.2194 13.3693C13.1776 14.2297 12.903 15.0626 12.425 15.7792C12.3946 15.8249 12.3555 15.8641 12.31 15.8947C12.2645 15.9253 12.2133 15.9466 12.1596 15.9574C12.1058 15.9683 12.0504 15.9684 11.9966 15.9578C11.9427 15.9473 11.8915 15.9262 11.8458 15.8958C11.8001 15.8655 11.7609 15.8264 11.7303 15.7809C11.6997 15.7353 11.6784 15.6842 11.6675 15.6304C11.6567 15.5766 11.6566 15.5212 11.6671 15.4674C11.6777 15.4136 11.6988 15.3624 11.7291 15.3167C12.1253 14.7252 12.3533 14.0372 12.3888 13.3262C12.4244 12.6152 12.266 11.9079 11.9308 11.2799C11.5956 10.6518 11.096 10.1267 10.4855 9.76055C9.87497 9.3944 9.17646 9.20099 8.46456 9.20099C7.75267 9.20099 7.05415 9.3944 6.44364 9.76055C5.83313 10.1267 5.33357 10.6518 4.99833 11.2799C4.66309 11.9079 4.50477 12.6152 4.54029 13.3262C4.57581 14.0372 4.80382 14.7252 5.19998 15.3167C5.26029 15.4085 5.28186 15.5205 5.26001 15.6282C5.23816 15.7359 5.17465 15.8306 5.08331 15.8917C5.01738 15.9378 4.93881 15.9626 4.85831 15.9625Z" fill="white"/>
<path d="M8.46666 15.3C8.22933 15.3 7.99732 15.2296 7.79998 15.0978C7.60264 14.9659 7.44883 14.7785 7.35801 14.5592C7.26718 14.3399 7.24342 14.0987 7.28972 13.8659C7.33602 13.6331 7.45031 13.4193 7.61814 13.2515C7.78596 13.0836 7.99978 12.9694 8.23255 12.9231C8.46533 12.8767 8.70661 12.9005 8.92588 12.9913C9.14515 13.0822 9.33257 13.236 9.46443 13.4333C9.59628 13.6306 9.66666 13.8627 9.66666 14.1C9.66557 14.4179 9.53878 14.7225 9.31398 14.9473C9.08917 15.1721 8.78458 15.2989 8.46666 15.3ZM8.46666 13.7333C8.39414 13.7333 8.32325 13.7548 8.26295 13.7951C8.20266 13.8354 8.15566 13.8927 8.12791 13.9597C8.10016 14.0267 8.09289 14.1004 8.10704 14.1715C8.12119 14.2427 8.15611 14.308 8.20739 14.3593C8.25867 14.4105 8.324 14.4455 8.39513 14.4596C8.46626 14.4738 8.53998 14.4665 8.60698 14.4388C8.67398 14.411 8.73125 14.364 8.77154 14.3037C8.81182 14.2434 8.83333 14.1725 8.83333 14.1C8.82904 14.0057 8.78852 13.9166 8.72022 13.8514C8.65191 13.7862 8.56109 13.7499 8.46666 13.75V13.7333Z" fill="white"/>
<path d="M9.02083 13.9625C8.96599 13.9628 8.91163 13.9523 8.86087 13.9316C8.8101 13.9108 8.76393 13.8803 8.725 13.8417C8.68594 13.8029 8.65494 13.7568 8.63379 13.7061C8.61264 13.6553 8.60175 13.6008 8.60175 13.5458C8.60175 13.4908 8.61264 13.4364 8.63379 13.3856C8.65494 13.3348 8.68594 13.2887 8.725 13.25L10.3917 11.5833C10.4701 11.5049 10.5765 11.4608 10.6875 11.4608C10.7985 11.4608 10.9049 11.5049 10.9833 11.5833C11.0618 11.6618 11.1059 11.7682 11.1059 11.8792C11.1059 11.9901 11.0618 12.0965 10.9833 12.175L9.31666 13.8417C9.27773 13.8803 9.23156 13.9108 9.18079 13.9316C9.13002 13.9523 9.07566 13.9628 9.02083 13.9625Z" fill="white"/>
<path d="M35.875 24.7708H21.9792C21.8687 24.7708 21.7627 24.7269 21.6845 24.6488C21.6064 24.5707 21.5625 24.4647 21.5625 24.3542C21.5625 24.2437 21.6064 24.1377 21.6845 24.0595C21.7627 23.9814 21.8687 23.9375 21.9792 23.9375H35.875C35.9855 23.9375 36.0915 23.9814 36.1696 24.0595C36.2478 24.1377 36.2917 24.2437 36.2917 24.3542C36.2917 24.4647 36.2478 24.5707 36.1696 24.6488C36.0915 24.7269 35.9855 24.7708 35.875 24.7708Z" fill="white"/>
<path d="M34.3167 24.7708C34.2062 24.7708 34.1002 24.7269 34.0221 24.6488C33.9439 24.5706 33.9 24.4647 33.9 24.3542V14.9583C33.9 14.8478 33.9439 14.7418 34.0221 14.6637C34.1002 14.5856 34.2062 14.5417 34.3167 14.5417C34.4272 14.5417 34.5332 14.5856 34.6113 14.6637C34.6895 14.7418 34.7334 14.8478 34.7334 14.9583V24.3542C34.7334 24.4647 34.6895 24.5706 34.6113 24.6488C34.5332 24.7269 34.4272 24.7708 34.3167 24.7708Z" fill="white"/>
<path d="M30.7542 24.7708C30.6437 24.7708 30.5377 24.7269 30.4596 24.6488C30.3814 24.5707 30.3375 24.4647 30.3375 24.3542V18.2458C30.3375 18.1353 30.3814 18.0293 30.4596 17.9512C30.5377 17.8731 30.6437 17.8292 30.7542 17.8292C30.8647 17.8292 30.9707 17.8731 31.0488 17.9512C31.127 18.0293 31.1709 18.1353 31.1709 18.2458V24.3542C31.1709 24.4647 31.127 24.5707 31.0488 24.6488C30.9707 24.7269 30.8647 24.7708 30.7542 24.7708Z" fill="white"/>
<path d="M27.1958 24.7708C27.0853 24.7708 26.9794 24.7269 26.9012 24.6488C26.8231 24.5707 26.7792 24.4647 26.7792 24.3542V16.5625C26.7792 16.452 26.8231 16.346 26.9012 16.2679C26.9794 16.1897 27.0853 16.1458 27.1958 16.1458C27.3063 16.1458 27.4123 16.1897 27.4905 16.2679C27.5686 16.346 27.6125 16.452 27.6125 16.5625V24.3542C27.6125 24.4647 27.5686 24.5707 27.4905 24.6488C27.4123 24.7269 27.3063 24.7708 27.1958 24.7708Z" fill="white"/>
<path d="M23.6375 24.7708C23.527 24.7708 23.421 24.7269 23.3429 24.6488C23.2647 24.5706 23.2208 24.4647 23.2208 24.3542V20.0833C23.2208 19.9728 23.2647 19.8668 23.3429 19.7887C23.421 19.7106 23.527 19.6667 23.6375 19.6667C23.748 19.6667 23.854 19.7106 23.9321 19.7887C24.0103 19.8668 24.0542 19.9728 24.0542 20.0833V24.3542C24.0542 24.4647 24.0103 24.5706 23.9321 24.6488C23.854 24.7269 23.748 24.7708 23.6375 24.7708Z" fill="white"/>
<path d="M23.6375 16.9792C23.3614 16.9792 23.0915 16.8973 22.862 16.7439C22.6324 16.5906 22.4535 16.3726 22.3479 16.1175C22.2422 15.8624 22.2146 15.5818 22.2685 15.311C22.3223 15.0403 22.4553 14.7915 22.6505 14.5963C22.8457 14.4011 23.0944 14.2682 23.3652 14.2143C23.6359 14.1605 23.9166 14.1881 24.1716 14.2938C24.4267 14.3994 24.6447 14.5783 24.7981 14.8079C24.9514 15.0374 25.0333 15.3073 25.0333 15.5833C25.0322 15.9532 24.8848 16.3076 24.6233 16.5691C24.3617 16.8307 24.0073 16.9781 23.6375 16.9792ZM23.6375 15.0208C23.5262 15.0208 23.4175 15.0538 23.325 15.1156C23.2325 15.1774 23.1604 15.2653 23.1178 15.3681C23.0752 15.4709 23.0641 15.584 23.0858 15.6931C23.1075 15.8022 23.1611 15.9024 23.2397 15.9811C23.3184 16.0597 23.4186 16.1133 23.5277 16.135C23.6368 16.1567 23.7499 16.1456 23.8527 16.103C23.9555 16.0604 24.0434 15.9883 24.1052 15.8958C24.167 15.8033 24.2 15.6946 24.2 15.5833C24.1989 15.4345 24.1393 15.292 24.034 15.1868C23.9288 15.0815 23.7863 15.0219 23.6375 15.0208Z" fill="white"/>
<path d="M27.1958 13.3083C26.9197 13.3083 26.6499 13.2265 26.4203 13.0731C26.1908 12.9197 26.0119 12.7017 25.9062 12.4467C25.8006 12.1916 25.773 11.9109 25.8268 11.6402C25.8807 11.3694 26.0136 11.1207 26.2088 10.9255C26.404 10.7303 26.6527 10.5973 26.9235 10.5435C27.1943 10.4896 27.4749 10.5173 27.73 10.6229C27.985 10.7286 28.203 10.9075 28.3564 11.137C28.5098 11.3666 28.5917 11.6364 28.5917 11.9125C28.5917 12.2827 28.4446 12.6377 28.1828 12.8995C27.9211 13.1613 27.566 13.3083 27.1958 13.3083ZM27.1958 11.35C27.0846 11.35 26.9758 11.383 26.8833 11.4448C26.7908 11.5066 26.7187 11.5945 26.6761 11.6972C26.6336 11.8 26.6224 11.9131 26.6441 12.0222C26.6658 12.1313 26.7194 12.2316 26.7981 12.3102C26.8767 12.3889 26.977 12.4425 27.0861 12.4642C27.1952 12.4859 27.3083 12.4748 27.4111 12.4322C27.5139 12.3896 27.6017 12.3175 27.6635 12.225C27.7253 12.1325 27.7583 12.0237 27.7583 11.9125C27.7583 11.8386 27.7438 11.7655 27.7155 11.6972C27.6872 11.629 27.6458 11.567 27.5936 11.5147C27.5413 11.4625 27.4793 11.4211 27.4111 11.3928C27.3428 11.3645 27.2697 11.35 27.1958 11.35Z" fill="white"/>
<path d="M30.7542 16.6083C30.4781 16.6083 30.2082 16.5265 29.9787 16.3731C29.7491 16.2197 29.5702 16.0017 29.4646 15.7467C29.3589 15.4916 29.3313 15.211 29.3852 14.9402C29.439 14.6694 29.572 14.4207 29.7672 14.2255C29.9624 14.0303 30.2111 13.8974 30.4819 13.8435C30.7526 13.7896 31.0333 13.8173 31.2883 13.9229C31.5434 14.0286 31.7614 14.2075 31.9148 14.437C32.0681 14.6666 32.15 14.9364 32.15 15.2125C32.15 15.3958 32.1139 15.5773 32.0438 15.7467C31.9736 15.916 31.8708 16.0699 31.7412 16.1995C31.6116 16.3291 31.4577 16.4319 31.2883 16.5021C31.119 16.5722 30.9375 16.6083 30.7542 16.6083ZM30.7542 14.65C30.6429 14.65 30.5342 14.683 30.4417 14.7448C30.3492 14.8066 30.2771 14.8945 30.2345 14.9973C30.1919 15.1 30.1808 15.2131 30.2025 15.3223C30.2242 15.4314 30.2778 15.5316 30.3564 15.6103C30.4351 15.6889 30.5353 15.7425 30.6444 15.7642C30.7535 15.7859 30.8666 15.7748 30.9694 15.7322C31.0722 15.6896 31.1601 15.6175 31.2219 15.525C31.2837 15.4325 31.3167 15.3238 31.3167 15.2125C31.3167 15.0633 31.2574 14.9203 31.1519 14.8148C31.0464 14.7093 30.9034 14.65 30.7542 14.65Z" fill="white"/>
<path d="M34.3167 13.1208C34.0404 13.1216 33.7702 13.0405 33.5401 12.8876C33.31 12.7347 33.1304 12.517 33.0241 12.262C32.9179 12.0071 32.8896 11.7263 32.943 11.4552C32.9964 11.1842 33.129 10.9351 33.324 10.7395C33.5191 10.5438 33.7678 10.4105 34.0387 10.3563C34.3096 10.3021 34.5904 10.3295 34.8457 10.435C35.101 10.5405 35.3193 10.7194 35.4728 10.9491C35.6264 11.1787 35.7084 11.4487 35.7084 11.725C35.7084 12.0945 35.5619 12.4489 35.301 12.7105C35.0401 12.9722 34.6862 13.1197 34.3167 13.1208ZM34.3167 11.1625C34.2053 11.1617 34.0961 11.194 34.0031 11.2553C33.91 11.3166 33.8373 11.4041 33.794 11.5068C33.7508 11.6095 33.7391 11.7228 33.7603 11.8322C33.7816 11.9415 33.8348 12.0422 33.9133 12.1212C33.9918 12.2003 34.092 12.2543 34.2012 12.2764C34.3105 12.2984 34.4238 12.2875 34.5268 12.2451C34.6298 12.2026 34.7179 12.1305 34.7799 12.0379C34.8419 11.9453 34.875 11.8364 34.875 11.725C34.875 11.5765 34.8163 11.4341 34.7117 11.3287C34.6072 11.2233 34.4651 11.1636 34.3167 11.1625Z" fill="white"/>
<path d="M31.4542 14.9458C31.399 14.9456 31.3445 14.9344 31.2937 14.913C31.243 14.8915 31.1969 14.8602 31.1583 14.8208C31.1193 14.7821 31.0883 14.736 31.0671 14.6852C31.046 14.6345 31.0351 14.58 31.0351 14.525C31.0351 14.47 31.046 14.4155 31.0671 14.3648C31.0883 14.314 31.1193 14.2679 31.1583 14.2292L33.3333 12.1125C33.4114 12.0349 33.517 11.9913 33.6271 11.9913C33.7372 11.9913 33.8428 12.0349 33.9208 12.1125C33.9599 12.1512 33.9909 12.1973 34.012 12.2481C34.0332 12.2989 34.0441 12.3533 34.0441 12.4083C34.0441 12.4633 34.0332 12.5178 34.012 12.5686C33.9909 12.6193 33.9599 12.6654 33.9208 12.7042L31.7583 14.8208C31.7188 14.8612 31.6714 14.8931 31.6191 14.9146C31.5668 14.9361 31.5107 14.9467 31.4542 14.9458Z" fill="white"/>
<path d="M30.0375 14.9667C29.9322 14.9663 29.831 14.9261 29.7542 14.8542L27.6292 12.8833C27.548 12.8082 27.4999 12.7039 27.4956 12.5933C27.4913 12.4827 27.5311 12.375 27.6063 12.2938C27.6814 12.2125 27.7857 12.1645 27.8963 12.1602C28.0069 12.1559 28.1146 12.1957 28.1958 12.2708L30.3208 14.2417C30.3616 14.2787 30.3946 14.3235 30.4179 14.3734C30.4412 14.4233 30.4544 14.4773 30.4568 14.5323C30.4591 14.5873 30.4505 14.6423 30.4314 14.6939C30.4124 14.7456 30.3833 14.793 30.3458 14.8333C30.3065 14.8758 30.2588 14.9095 30.2057 14.9325C30.1526 14.9554 30.0953 14.9671 30.0375 14.9667Z" fill="white"/>
<path d="M24.3209 15.3C24.2121 15.3006 24.1075 15.2588 24.0292 15.1833C23.9901 15.1446 23.9591 15.0985 23.938 15.0477C23.9168 14.997 23.9059 14.9425 23.9059 14.8875C23.9059 14.8325 23.9168 14.778 23.938 14.7273C23.9591 14.6765 23.9901 14.6304 24.0292 14.5917L26.225 12.325C26.3035 12.2465 26.4099 12.2025 26.5209 12.2025C26.6318 12.2025 26.7382 12.2465 26.8167 12.325C26.8952 12.4035 26.9392 12.5099 26.9392 12.6208C26.9392 12.7318 26.8952 12.8382 26.8167 12.9167L24.6167 15.1833C24.5374 15.2598 24.431 15.3017 24.3209 15.3Z" fill="white"/>
</svg>
