<svg width="40" height="40" viewBox="0 0 40 40" fill="none" xmlns="http://www.w3.org/2000/svg">
<path d="M31.7875 37.2333H5.17915C4.0269 37.2322 2.92216 36.774 2.1074 35.9592C1.29263 35.1445 0.834416 34.0397 0.833313 32.8875V16.0792C0.834416 14.9269 1.29263 13.8222 2.1074 13.0074C2.92216 12.1927 4.0269 11.7344 5.17915 11.7333H26.225C26.3355 11.7333 26.4415 11.7772 26.5196 11.8554C26.5977 11.9335 26.6416 12.0395 26.6416 12.15C26.6416 12.2605 26.5977 12.3665 26.5196 12.4446C26.4415 12.5228 26.3355 12.5667 26.225 12.5667H5.17915C4.24791 12.5678 3.35513 12.9382 2.69665 13.5967C2.03817 14.2552 1.66775 15.1479 1.66665 16.0792V32.8875C1.66775 33.8187 2.03817 34.7115 2.69665 35.37C3.35513 36.0285 4.24791 36.3989 5.17915 36.4H31.7875C32.7187 36.3989 33.6115 36.0285 34.27 35.37C34.9285 34.7115 35.2989 33.8187 35.3 32.8875V20.3875C35.3 20.277 35.3439 20.171 35.422 20.0929C35.5002 20.0147 35.6061 19.9708 35.7166 19.9708C35.8272 19.9708 35.9331 20.0147 36.0113 20.0929C36.0894 20.171 36.1333 20.277 36.1333 20.3875V32.8875C36.1322 34.0397 35.674 35.1445 34.8592 35.9592C34.0445 36.774 32.9397 37.2322 31.7875 37.2333Z" fill="white"/>
<path d="M18.4834 28.4542C17.9055 28.4562 17.3332 28.3418 16.8006 28.1177C16.2679 27.8937 15.7859 27.5645 15.3834 27.15L2.08336 13.5958C2.00601 13.5168 1.96321 13.4103 1.96438 13.2997C1.96555 13.1892 2.0106 13.0836 2.08961 13.0063C2.16862 12.9289 2.27513 12.8861 2.3857 12.8873C2.49627 12.8884 2.60184 12.9335 2.67919 13.0125L15.9709 26.5667C16.2976 26.8977 16.6869 27.1606 17.116 27.34C17.5452 27.5195 18.0057 27.6119 18.4709 27.6119C18.936 27.6119 19.3965 27.5195 19.8257 27.34C20.2549 27.1606 20.6441 26.8977 20.9709 26.5667L27.35 20.0833C27.3883 20.0442 27.434 20.013 27.4843 19.9915C27.5347 19.97 27.5888 19.9587 27.6435 19.9581C27.6983 19.9575 27.7526 19.9677 27.8034 19.9881C27.8542 20.0086 27.9005 20.0388 27.9396 20.0771C27.9787 20.1154 28.0099 20.161 28.0314 20.2114C28.0529 20.2617 28.0643 20.3158 28.0648 20.3706C28.0654 20.4253 28.0552 20.4797 28.0348 20.5305C28.0144 20.5813 27.9842 20.6275 27.9459 20.6667L21.5875 27.15C21.1842 27.5646 20.7014 27.8938 20.1681 28.1179C19.6348 28.3419 19.0618 28.4563 18.4834 28.4542Z" fill="white"/>
<path d="M2.38749 36.0792C2.33107 36.0822 2.27468 36.0729 2.22218 36.052C2.16968 36.0312 2.12231 35.9992 2.08332 35.9583C2.00572 35.8803 1.96216 35.7747 1.96216 35.6646C1.96216 35.5545 2.00572 35.4489 2.08332 35.3708L13.05 24.1917C13.0887 24.1526 13.1348 24.1216 13.1856 24.1005C13.2364 24.0793 13.2908 24.0684 13.3458 24.0684C13.4008 24.0684 13.4553 24.0793 13.5061 24.1005C13.5568 24.1216 13.6029 24.1526 13.6417 24.1917C13.7193 24.2697 13.7628 24.3753 13.7628 24.4854C13.7628 24.5955 13.7193 24.7011 13.6417 24.7792L2.68332 35.9542C2.64473 35.9935 2.59871 36.0249 2.54793 36.0463C2.49715 36.0678 2.44262 36.0789 2.38749 36.0792Z" fill="white"/>
<path d="M34.5833 36.0792C34.5275 36.0795 34.4722 36.0686 34.4206 36.0471C34.3691 36.0256 34.3224 35.994 34.2833 35.9542L23.3333 24.775C23.2557 24.6969 23.2122 24.5913 23.2122 24.4813C23.2122 24.3712 23.2557 24.2656 23.3333 24.1875C23.3721 24.1484 23.4181 24.1174 23.4689 24.0963C23.5197 24.0751 23.5742 24.0643 23.6292 24.0643C23.6842 24.0643 23.7386 24.0751 23.7894 24.0963C23.8402 24.1174 23.8863 24.1484 23.925 24.1875L34.8792 35.3708C34.9568 35.4489 35.0003 35.5545 35.0003 35.6646C35.0003 35.7747 34.9568 35.8803 34.8792 35.9583C34.8402 35.997 34.794 36.0275 34.7433 36.0482C34.6925 36.069 34.6382 36.0795 34.5833 36.0792Z" fill="white"/>
<path d="M37.9167 20.7917H25.0542C24.8284 20.791 24.607 20.7292 24.4136 20.6128C24.2201 20.4965 24.0618 20.3299 23.9554 20.1308C23.849 19.9316 23.7985 19.7074 23.8093 19.4819C23.8201 19.2564 23.8917 19.0381 24.0167 18.85L25.7375 16.2958C25.7831 16.228 25.8077 16.1483 25.8083 16.0667V11.6667C25.8083 10.1605 26.4067 8.71594 27.4717 7.65089C28.5368 6.58584 29.9813 5.9875 31.4875 5.9875C32.9937 5.9875 34.4382 6.58584 35.5033 7.65089C36.5683 8.71594 37.1667 10.1605 37.1667 11.6667V16.0667C37.1673 16.1483 37.1919 16.228 37.2375 16.2958L38.9542 18.85C39.0791 19.0381 39.1508 19.2564 39.1615 19.4819C39.1723 19.7074 39.1218 19.9316 39.0155 20.1308C38.9091 20.3299 38.7507 20.4965 38.5573 20.6128C38.3638 20.7292 38.1424 20.791 37.9167 20.7917ZM31.4875 6.81667C30.2019 6.81777 28.9694 7.32924 28.0607 8.23867C27.1521 9.1481 26.6417 10.3811 26.6417 11.6667V16.0667C26.6414 16.3146 26.5674 16.5568 26.4292 16.7625L24.7083 19.3167C24.6642 19.3849 24.6411 19.4646 24.6417 19.5458C24.6417 19.6563 24.6856 19.7623 24.7637 19.8405C24.8418 19.9186 24.9478 19.9625 25.0583 19.9625H37.9167C38.0272 19.9625 38.1332 19.9186 38.2113 19.8405C38.2894 19.7623 38.3333 19.6563 38.3333 19.5458C38.3327 19.4642 38.3081 19.3845 38.2625 19.3167L36.5458 16.7625C36.4076 16.5568 36.3336 16.3146 36.3333 16.0667V11.6667C36.3322 10.3814 35.8215 9.14908 34.9131 8.23989C34.0046 7.33069 32.7727 6.81887 31.4875 6.81667Z" fill="white"/>
<path d="M31.4875 23.1333C30.7599 23.1267 30.0643 22.8334 29.5517 22.3169C29.0392 21.8005 28.7511 21.1026 28.75 20.375C28.75 20.2645 28.7939 20.1585 28.872 20.0804C28.9502 20.0022 29.0562 19.9583 29.1667 19.9583H33.8292C33.9397 19.9583 34.0457 20.0022 34.1238 20.0804C34.2019 20.1585 34.2458 20.2645 34.2458 20.375C34.2447 21.1062 33.9538 21.8072 33.4367 22.3242C32.9197 22.8413 32.2187 23.1322 31.4875 23.1333ZM29.6083 20.7917C29.7068 21.2151 29.9457 21.5928 30.2861 21.8632C30.6266 22.1336 31.0486 22.2808 31.4833 22.2808C31.9181 22.2808 32.3401 22.1336 32.6805 21.8632C33.021 21.5928 33.2599 21.2151 33.3583 20.7917H29.6083Z" fill="white"/>
<path d="M31.4875 6.81667C31.087 6.81667 30.6955 6.6979 30.3625 6.47539C30.0295 6.25288 29.7699 5.93662 29.6167 5.5666C29.4634 5.19658 29.4233 4.78942 29.5014 4.39661C29.5796 4.0038 29.7724 3.64298 30.0556 3.35978C30.3388 3.07657 30.6997 2.88371 31.0925 2.80558C31.4853 2.72744 31.8924 2.76754 32.2625 2.92081C32.6325 3.07408 32.9487 3.33363 33.1712 3.66664C33.3938 3.99965 33.5125 4.39116 33.5125 4.79167C33.5114 5.32839 33.2977 5.84282 32.9182 6.22234C32.5387 6.60186 32.0243 6.81557 31.4875 6.81667ZM31.4875 3.6C31.2518 3.6 31.0214 3.66989 30.8255 3.80083C30.6295 3.93177 30.4768 4.11789 30.3866 4.33564C30.2964 4.55338 30.2728 4.79299 30.3188 5.02415C30.3647 5.25531 30.4782 5.46764 30.6449 5.6343C30.8115 5.80096 31.0239 5.91446 31.255 5.96044C31.4862 6.00642 31.7258 5.98282 31.9436 5.89262C32.1613 5.80243 32.3474 5.64969 32.4784 5.45372C32.6093 5.25775 32.6792 5.02736 32.6792 4.79167C32.6792 4.47562 32.5536 4.17251 32.3302 3.94903C32.1067 3.72555 31.8036 3.6 31.4875 3.6Z" fill="white"/>
</svg>
