<svg width="40" height="40" viewBox="0 0 40 40" fill="none" xmlns="http://www.w3.org/2000/svg">
<path d="M19.9 20H36.15" stroke="white" stroke-width="2" stroke-linecap="round" stroke-linejoin="round"/>
<path d="M29.9125 31.25V35H9.91248V5H29.9125V8.75H32.4125V3.75C32.4125 3.41848 32.2808 3.10054 32.0464 2.86612C31.8119 2.6317 31.494 2.5 31.1625 2.5H8.66248C8.33095 2.5 8.01301 2.6317 7.77859 2.86612C7.54417 3.10054 7.41248 3.41848 7.41248 3.75V36.25C7.41248 36.5815 7.54417 36.8995 7.77859 37.1339C8.01301 37.3683 8.33095 37.5 8.66248 37.5H31.1625C31.494 37.5 31.8119 37.3683 32.0464 37.1339C32.2808 36.8995 32.4125 36.5815 32.4125 36.25V31.25H29.9125Z" fill="white"/>
<path d="M36.15 20L31.15 25" stroke="white" stroke-width="2" stroke-linecap="round" stroke-linejoin="round"/>
<path d="M36.15 20L31.15 15" stroke="white" stroke-width="2" stroke-linecap="round" stroke-linejoin="round"/>
<path d="M31.15 10.1125V7.61249" stroke="white" stroke-width="2" stroke-linecap="round" stroke-linejoin="round"/>
<path d="M31.15 32.5V30" stroke="white" stroke-width="2" stroke-linecap="round" stroke-linejoin="round"/>
</svg>
