<svg width="40" height="40" viewBox="0 0 40 40" fill="none" xmlns="http://www.w3.org/2000/svg">
<g clip-path="url(#clip0_7_172)">
<path fill-rule="evenodd" clip-rule="evenodd" d="M26.6667 39.2308C26.6667 39.6554 26.368 40 26 40H24.6667C24.2987 40 24 39.6554 24 39.2308C24 38.8062 24.2987 38.4615 24.6667 38.4615H26C26.368 38.4615 26.6667 38.8062 26.6667 39.2308ZM40 39.2308C40 39.6554 39.7013 40 39.3333 40H28.6667C28.2987 40 28 39.6554 28 39.2308C28 38.8062 28.2987 38.4615 28.6667 38.4615H39.3333C39.7013 38.4615 40 38.8062 40 39.2308ZM21.3333 39.2308C21.3333 39.6554 21.0347 40 20.6667 40H14C13.632 40 13.3333 39.6554 13.3333 39.2308C13.3333 38.8062 13.632 38.4615 14 38.4615H20.6667C21.0347 38.4615 21.3333 38.8062 21.3333 39.2308ZM10.6667 39.2308C10.6667 39.6554 10.368 40 10 40H0.666667C0.298667 40 0 39.6554 0 39.2308C0 38.8062 0.298667 38.4615 0.666667 38.4615H10C10.368 38.4615 10.6667 38.8062 10.6667 39.2308ZM1.33333 23.8462C1.33333 23.4215 1.632 23.0769 2 23.0769H3.89333L3.61133 20.8823C3.55733 20.4623 3.80867 20.0708 4.17267 20.0085C4.53933 19.9492 4.87667 20.2362 4.93067 20.6562L5.242 23.0769H10C10.368 23.0769 10.6667 23.4215 10.6667 23.8462C10.6667 24.2708 10.368 24.6154 10 24.6154H2C1.632 24.6154 1.33333 24.2708 1.33333 23.8462ZM2 16.9231H3.03933L2.75733 14.7285C2.70333 14.3085 2.95467 13.9169 3.31867 13.8546C3.68533 13.7962 4.02267 14.0823 4.076 14.5023L4.388 16.9231H10C10.368 16.9231 10.6667 17.2677 10.6667 17.6923C10.6667 18.1169 10.368 18.4615 10 18.4615H2C1.632 18.4615 1.33333 18.1169 1.33333 17.6923C1.33333 17.2677 1.632 16.9231 2 16.9231ZM10 32.3077C9.63267 32.3077 9.33333 31.9623 9.33333 31.5385C9.33333 31.1146 9.63267 30.7692 10 30.7692C10.3673 30.7692 10.6667 31.1146 10.6667 31.5385C10.6667 31.9623 10.3673 32.3077 10 32.3077ZM10 29.2308C8.89733 29.2308 8 30.2662 8 31.5385C8 32.8108 8.89733 33.8462 10 33.8462C11.1027 33.8462 12 32.8108 12 31.5385C12 30.2662 11.1027 29.2308 10 29.2308ZM32.6667 32.3077C32.2993 32.3077 32 31.9623 32 31.5385C32 31.1146 32.2993 30.7692 32.6667 30.7692C33.034 30.7692 33.3333 31.1146 33.3333 31.5385C33.3333 31.9623 33.034 32.3077 32.6667 32.3077ZM32.6667 29.2308C31.564 29.2308 30.6667 30.2662 30.6667 31.5385C30.6667 32.8108 31.564 33.8462 32.6667 33.8462C33.7693 33.8462 34.6667 32.8108 34.6667 31.5385C34.6667 30.2662 33.7693 29.2308 32.6667 29.2308ZM32.6667 35.3846C30.8287 35.3846 29.3333 33.6592 29.3333 31.5385C29.3333 29.4177 30.8287 27.6923 32.6667 27.6923C34.5047 27.6923 36 29.4177 36 31.5385C36 33.6592 34.5047 35.3846 32.6667 35.3846ZM39.138 19.4562L37.3107 17.3477L36.6667 8.46154C36.6667 6.34077 35.1713 4.61538 33.3333 4.61538H28.6667C28.2987 4.61538 28 4.96 28 5.38462C28 5.80923 28.2987 6.15385 28.6667 6.15385H33.3333C34.4173 6.15385 35.3333 7.21077 35.3353 8.52538L35.942 16.9231H33.7453L34.5967 14.9592C34.7613 14.5792 34.6273 14.1177 34.298 13.9269C33.968 13.7369 33.5687 13.8915 33.4033 14.2715L32.2547 16.9231H28.6667C28.2987 16.9231 28 17.2677 28 17.6923C28 18.1169 28.2987 18.4615 28.6667 18.4615H36.3907L38.1953 20.5438C38.5753 20.9823 38.6653 21.9908 38.6667 22.3077V30.7692H37.28C36.9553 28.1638 35.0133 26.1538 32.6667 26.1538C30.0933 26.1538 28 28.5692 28 31.5385C28 34.5077 30.0933 36.9231 32.6667 36.9231C35.0133 36.9231 36.9553 34.9131 37.28 32.3077H39.3333C39.7013 32.3077 40 31.9631 40 31.5385V22.3077C40 22.1177 39.976 20.4223 39.138 19.4562ZM10 35.3846C8.162 35.3846 6.66667 33.6592 6.66667 31.5385C6.66667 29.4177 8.162 27.6923 10 27.6923C11.838 27.6923 13.3333 29.4177 13.3333 31.5385C13.3333 33.6592 11.838 35.3846 10 35.3846ZM26 0H4.66667C2.82867 0 1.33333 1.72538 1.33333 3.84615C1.33333 3.88462 1.336 3.92231 1.34067 3.96L2.226 10.7692H0.666667C0.298667 10.7692 0 11.1138 0 11.5385C0 11.9631 0.298667 12.3077 0.666667 12.3077H10C10.368 12.3077 10.6667 11.9631 10.6667 11.5385C10.6667 11.1138 10.368 10.7692 10 10.7692H3.574L2.66733 3.79308C2.692 2.54538 3.57933 1.53846 4.66667 1.53846H25.3333V30.7692H14.6133C14.2887 28.1638 12.3467 26.1538 10 26.1538C7.42667 26.1538 5.33333 28.5692 5.33333 31.5385C5.33333 34.5077 7.42667 36.9231 10 36.9231C12.3467 36.9231 14.2887 34.9131 14.6133 32.3077H26C26.368 32.3077 26.6667 31.9631 26.6667 31.5385V0.769231C26.6667 0.344615 26.368 0 26 0Z" fill="white"/>
</g>
<defs>
<clipPath id="clip0_7_172">
<rect width="40" height="40" fill="white"/>
</clipPath>
</defs>
</svg>
