<svg width="65" height="65" viewBox="0 0 65 65" fill="none" xmlns="http://www.w3.org/2000/svg">
<path d="M56.4 62.8H40.4C40 62.8 39.6 63.1 39.6 63.6C39.6 64.1 39.9 64.4 40.4 64.4H56.4C56.8 64.4 57.2 64.1 57.2 63.6C57.2 63.1 56.8 62.8 56.4 62.8Z" fill="white"/>
<path d="M62.4 62.8H60.4C60 62.8 59.6 63.1 59.6 63.6C59.6 64.1 59.9 64.4 60.4 64.4H62.4C62.8 64.4 63.2 64.1 63.2 63.6C63.2 63.1 62.8 62.8 62.4 62.8Z" fill="white"/>
<path d="M18.4 9.30001C18.8 9.30001 19.2 9.00001 19.2 8.50001V1.50001C19.2 1.10001 18.9 0.700012 18.4 0.700012C17.9 0.700012 17.6 1.00001 17.6 1.50001V8.50001C17.6 8.90001 17.9 9.30001 18.4 9.30001Z" fill="white"/>
<path d="M18.4 14.3C18.8 14.3 19.2 14 19.2 13.5V12.5C19.2 12.1 18.9 11.7 18.4 11.7C17.9 11.7 17.6 12 17.6 12.5V13.5C17.6 13.9 17.9 14.3 18.4 14.3Z" fill="white"/>
<path d="M58.4 20.3H59.7V21.6C59.7 22 60 22.4 60.5 22.4C61 22.4 61.3 22.1 61.3 21.6V20.3H62.6C63 20.3 63.4 20 63.4 19.5C63.4 19 63.1 18.7 62.6 18.7H61.3V17.4C61.3 17 61 16.6 60.5 16.6C60 16.6 59.7 16.9 59.7 17.4V18.7H58.4C58 18.7 57.6 19 57.6 19.5C57.6 20 57.9 20.3 58.4 20.3Z" fill="white"/>
<path d="M31.4 9.30001H32.7V10.6C32.7 11 33 11.4 33.5 11.4C34 11.4 34.3 11.1 34.3 10.6V9.30001H35.6C36 9.30001 36.4 9.00001 36.4 8.50001C36.4 8.00001 36.1 7.70001 35.6 7.70001H34.3V6.50001C34.3 6.10001 34 5.70001 33.5 5.70001C33 5.70001 32.7 6.00001 32.7 6.50001V7.80001H31.4C31 7.80001 30.6 8.10001 30.6 8.60001C30.6 9.10001 30.9 9.30001 31.4 9.30001Z" fill="white"/>
<path d="M63.2 31C62.8 29.5 61.9 28.3 60.3 27.4C59 26.6 57.3 26.2 55.6 26.2H48C47.7 26 47.7 25.9 47.7 25.7C47.5 24.7 49 22.7 50.1 21.6C50.2 21.5 50.2 21.5 50.2 21.4C55.6 11 50.2 6.4 50 6.2C50 6.2 49.9 6.2 49.9 6.1C48.5 5.3 47.3 5.1 46.2 5.7C43.8 7 43.3 11.2 43.2 12.1C42.3 14.5 39.6 17.4 37.6 19.4C35.8 21.3 34 23.4 32.5 25.7C30.8 28.3 29.6 30 29.1 30.7C28 32.1 26.7 32.2 26.7 32.2H24.2V29.3C24.2 28.9 23.9 28.5 23.4 28.5H10.8C10.4 28.5 10 28.8 10 29.3V31.7H2.40001C2.00001 31.7 1.70001 32 1.70001 32.5C1.70001 33 2.00001 33.3 2.40001 33.3H10.1V55.6H2.40001C2.00001 55.6 1.70001 55.9 1.70001 56.4C1.70001 56.9 1.90001 57 2.40001 57H10.1V58.7C10.1 59.1 10.4 59.5 10.9 59.5H23.5C23.9 59.5 24.3 59.2 24.3 58.7V56.5H26.2C26.8 57.7 28.4 58.1 29.4 58.2H55.9H56C57.8 57.9 59 57.1 59.7 55.8C60.5 54.3 60.1 52.5 59.8 51.5C62.2 49.7 61.9 46.5 61.3 44.6C64.2 42.1 63.3 38.5 62.1 36.6C63.2 34.6 63.7 32.7 63.2 31ZM22.7 58H11.6V30.1H22.7V58ZM60.7 36H50.4C50 36 49.6 36.3 49.6 36.8C49.6 37.3 49.9 37.6 50.4 37.6H60.8C61.4 38.6 62.9 41.7 60.1 43.8H50.4C50 43.8 49.6 44.1 49.6 44.6C49.6 45.1 49.9 45.4 50.4 45.4H59.8C60.1 46.5 60.8 49.4 58.6 50.8H50.4C50 50.8 49.6 51.1 49.6 51.6C49.6 52.1 49.9 52.4 50.4 52.4H58.3C58.5 53.1 58.8 54.4 58.3 55.5C57.9 56.3 57 56.8 55.8 57.1H29.5C29.1 57.1 27.6 56.8 27.4 56C27.3 55.6 27 55.4 26.7 55.4H24.3V33.7H26.8C26.9 33.7 28.9 33.7 30.4 31.6C30.9 30.9 32.1 29.2 33.9 26.5C35.4 24.3 37 22.3 38.8 20.5C41 18.3 43.8 15.2 44.8 12.5C44.8 12.4 44.8 12.4 44.8 12.3C44.9 11.1 45.4 7.8 47 7C47.6 6.7 48.3 6.8 49.2 7.3C49.6 7.7 53.6 11.6 49 20.6C48.4 21.2 45.9 23.9 46.3 25.9C46.4 26.4 46.7 27.1 47.6 27.5C47.7 27.5 47.8 27.6 47.9 27.6H55.7C57.2 27.6 58.6 27.9 59.7 28.6C60.9 29.3 61.6 30.2 61.9 31.3C62.1 32.7 61.7 34.2 60.7 36Z" fill="white"/>
<path d="M17.1 49.6C15.5 49.6 14.2 50.9 14.2 52.5C14.2 54.1 15.5 55.4 17.1 55.4C18.7 55.4 20 54.1 20 52.5C20 50.9 18.7 49.6 17.1 49.6ZM17.1 53.8C16.4 53.8 15.7 53.2 15.7 52.4C15.7 51.6 16.3 51 17.1 51C17.9 51 18.5 51.6 18.5 52.4C18.5 53.2 17.9 53.8 17.1 53.8Z" fill="white"/>
</svg>
