<svg width="40" height="40" viewBox="0 0 40 40" fill="none" xmlns="http://www.w3.org/2000/svg">
<path fill-rule="evenodd" clip-rule="evenodd" d="M37.0192 20.8791L34.6788 16.1994C34.5793 15.9995 34.3756 15.8729 34.1524 15.8723H33.565V8.33481C33.5656 8.15048 33.4675 7.94019 33.3496 7.73602L29.9426 2.02086C29.8366 1.84298 29.6451 1.73368 29.4381 1.7329L9.97439 1.71873C9.76758 1.71925 9.57615 1.82821 9.4699 2.0055L5.93045 7.88654C5.86688 7.9994 5.84742 8.10432 5.84742 8.23906V24.7166C5.64918 24.717 5.46441 24.8169 5.35561 24.9827L2.99674 28.5175C2.94296 28.6114 2.89643 28.733 2.89643 28.8434V37.6892C2.89525 38.0167 3.16097 38.2825 3.48844 38.2813C14.4965 38.2813 25.5032 38.2813 36.5115 38.2813C36.839 38.2825 37.1048 38.0167 37.1035 37.6892V21.1771C37.1035 21.045 37.0537 20.9389 37.0192 20.8791ZM10.3096 2.8996L17.5854 2.90669L17.4207 4.66893H9.24531L10.3096 2.8996ZM21.8321 2.90847L29.0987 2.91555L30.1469 4.66974H22.0083L21.8321 2.90847ZM18.7683 2.91377H20.6446L21.1191 7.60275H18.3283L18.7683 2.91377ZM8.53466 5.84856H17.3102L17.1466 7.60275H7.47847L8.53466 5.84856ZM22.1269 5.84856H30.8518L31.8999 7.60275H22.302L22.1269 5.84856ZM7.02812 8.78675H17.0533V11.7469C17.0534 12.1981 17.539 12.4821 17.9321 12.2606L19.7047 11.2458L21.4762 12.2606C21.8703 12.4871 22.3614 12.2016 22.3596 11.7469V8.78675H32.3848V15.8737C28.2529 15.8751 24.1338 15.8737 20.0008 15.8737C19.7771 15.8739 19.5729 16.0006 19.4733 16.2008L17.1144 20.9197C17.0595 21.0313 17.0414 21.1576 17.0626 21.2802V24.7195H7.02815L7.02812 8.78675ZM18.2327 8.78675H21.1802V10.7287L19.9961 10.0537C19.8153 9.95081 19.593 9.95081 19.4122 10.0537L18.2327 10.7287V8.78675ZM8.79496 9.98C8.47107 9.98119 8.20881 10.2435 8.20755 10.5674C8.20873 10.8913 8.47107 11.1536 8.79496 11.1549H12.9218C13.2475 11.1562 13.5126 10.8931 13.5139 10.5674C13.5127 10.2417 13.2475 9.97874 12.9218 9.98H8.79496ZM25.8991 9.98C25.5734 9.97883 25.3083 10.2417 25.307 10.5674V12.9263C25.3076 13.2524 25.5729 13.5161 25.8991 13.5149C27.4705 13.5149 29.0419 13.5149 30.6133 13.5149C30.9391 13.5161 31.2042 13.2521 31.2054 12.9263V10.5674C31.2042 10.2416 30.9391 9.97876 30.6133 9.98C29.0419 9.98 27.4705 9.98 25.8991 9.98ZM26.4865 11.1549H27.6659V12.3343H26.4865V11.1549ZM28.8465 11.1549H30.0259V12.3343H28.8465V11.1549ZM8.79496 12.3343C8.46927 12.3356 8.20628 12.6006 8.20755 12.9263C8.20814 13.2507 8.47062 13.5136 8.79496 13.5149H11.7424C12.0685 13.5162 12.3338 13.2524 12.3344 12.9263C12.3356 12.5988 12.0699 12.333 11.7424 12.3343H8.79496ZM20.3659 17.0532H25.2287L24.7876 20.5926H18.5944L19.1841 19.4132H23.539C23.8632 19.4121 24.1265 19.1499 24.1276 18.8258C24.1288 18.5 23.8649 18.2349 23.539 18.2337H19.775L20.3659 17.0532ZM26.4174 17.0532H27.7362L28.1796 20.5926H25.9774L26.4174 17.0532ZM28.9237 17.0532H33.7865L34.3774 18.2337H30.6133C30.2875 18.2349 30.0247 18.5 30.0259 18.8258C30.0271 19.1499 30.2892 19.4121 30.6133 19.4132H34.9683L35.5591 20.5926H29.3648L28.9237 17.0532ZM18.242 21.7721H24.7196V25.1768C24.7232 25.6306 25.2161 25.9108 25.6077 25.6813L27.0785 24.8151L28.5459 25.6813C28.9374 25.9108 29.4306 25.6306 29.4339 25.1768V21.7721H35.9243V37.1047H29.4339V35.3367C29.4351 35.0111 29.1722 34.746 28.8465 34.7447H25.3197C24.9922 34.7435 24.7264 35.0092 24.7277 35.3367V37.1047H18.242V21.7721ZM25.8991 21.7721H28.2579V24.1447L27.3745 23.623C27.1903 23.5149 26.9621 23.5149 26.7779 23.623L25.8991 24.1401V21.7721ZM20.0007 22.9527C19.6764 22.9533 19.4135 23.2157 19.4122 23.5401V25.8989C19.411 26.2251 19.6746 26.4903 20.0007 26.491H22.3596C22.6853 26.4897 22.9483 26.2246 22.947 25.8989V23.5401C22.9458 23.2162 22.6835 22.954 22.3596 22.9527H20.0007ZM20.5882 24.1321H21.7676V25.3115H20.5882V24.1321ZM6.16197 25.8989H9.7475L8.96082 28.2589H4.58977L6.16197 25.8989ZM10.9891 25.8989H12.1075L11.3197 28.2589H10.2025L10.9891 25.8989ZM13.3503 25.8989H17.0533V28.2589H12.5636L13.3503 25.8989ZM4.07608 29.4384H8.79496V31.7984C8.79555 32.2363 9.25676 32.5206 9.64844 32.3248L10.5664 31.8675L11.4809 32.3248C11.8726 32.5205 12.3335 32.2362 12.3344 31.7984V29.4384H17.0533V37.1047H4.07608V29.4384ZM9.9744 29.4384H11.155V30.8447L10.8279 30.6789C10.6622 30.5962 10.4672 30.5962 10.3015 30.6789L9.9744 30.8447V29.4384ZM20.0007 32.9778C19.6764 32.9785 19.4134 33.2409 19.4122 33.5652V35.3367C19.4128 35.6615 19.6759 35.9246 20.0007 35.9252C20.3251 35.924 20.5875 35.6611 20.5882 35.3367V33.5652C20.587 33.2414 20.3246 32.9791 20.0007 32.9778ZM5.84753 33.5652C5.52003 33.5639 5.25423 33.8298 5.25551 34.1573V35.3367C5.2561 35.6629 5.52139 35.9265 5.84753 35.9252C6.17232 35.9246 6.43546 35.6615 6.4361 35.3367V34.1573C6.43727 33.8311 6.17367 33.5659 5.84753 33.5652ZM8.20755 34.1573C7.88186 34.156 7.6168 34.419 7.61553 34.7447V35.3367C7.61612 35.6629 7.88141 35.9265 8.20755 35.9252C8.5319 35.924 8.79433 35.6611 8.79496 35.3367V34.7447C8.79378 34.4208 8.53145 34.1585 8.20755 34.1573ZM22.3596 34.1573C22.0339 34.156 21.7689 34.419 21.7676 34.7447V35.3367C21.7682 35.6629 22.0335 35.9265 22.3596 35.9252C22.684 35.924 22.9464 35.6611 22.947 35.3367V34.7447C22.9458 34.4208 22.6835 34.1585 22.3596 34.1573ZM25.9083 35.9252H28.2579V37.1047H25.9083V35.9252Z" fill="white"/>
</svg>
