<svg width="40" height="40" viewBox="0 0 40 40" fill="none" xmlns="http://www.w3.org/2000/svg">
<g clip-path="url(#clip0_7_184)">
<path d="M37.8461 17.7231C37.6 17.7231 37.3538 17.9077 37.3538 18.2154V28.0615C37.3538 28.3077 37.5384 28.5538 37.8461 28.5538C38.1538 28.5538 38.3384 28.3692 38.3384 28.0615V18.2154C38.3384 17.9077 38.0923 17.7231 37.8461 17.7231Z" fill="white"/>
<path d="M37.8461 14.0308C37.6 14.0308 37.3538 14.2154 37.3538 14.5231V15.7538C37.3538 16 37.5384 16.2462 37.8461 16.2462C38.1538 16.2462 38.3384 16.0615 38.3384 15.7538V14.5231C38.3384 14.2154 38.0923 14.0308 37.8461 14.0308Z" fill="white"/>
<path d="M2.76921 5.66154C3.01536 5.66154 3.26152 5.47692 3.26152 5.16923V0.86154C3.26152 0.615386 3.0769 0.369232 2.76921 0.369232C2.46152 0.369232 2.33844 0.676924 2.33844 0.923078V5.23077C2.33844 5.47692 2.52306 5.66154 2.76921 5.66154Z" fill="white"/>
<path d="M2.76922 8.73847C3.01538 8.73847 3.26153 8.55385 3.26153 8.24616V7.63077C3.26153 7.38462 3.07692 7.13847 2.76922 7.13847C2.46153 7.13847 2.27692 7.32308 2.27692 7.63077V8.24616C2.33845 8.55385 2.52307 8.73847 2.76922 8.73847Z" fill="white"/>
<path d="M4.4923 28C4.4923 27.7538 4.30768 27.5077 3.99999 27.5077H3.26153V26.7077C3.26153 26.4615 3.07691 26.2154 2.76922 26.2154C2.46153 26.2154 2.27691 26.4 2.27691 26.7077V27.5077H1.53845C1.2923 27.5077 1.04614 27.6923 1.04614 28C1.04614 28.3077 1.23076 28.4923 1.53845 28.4923H2.33845V29.2923C2.33845 29.5385 2.52307 29.7846 2.83076 29.7846C3.13845 29.7846 3.32307 29.6 3.32307 29.2923V28.4923H4.12307C4.24614 28.4923 4.4923 28.2462 4.4923 28Z" fill="white"/>
<path d="M36 0.49231H12C9.72311 0.49231 7.81542 2.33846 7.81542 4.67692V8.98462C7.81542 9.23077 8.00003 9.47692 8.30772 9.47692C8.61542 9.47692 8.80003 9.29231 8.80003 8.98462V4.67692C8.80003 2.89231 10.277 1.41539 12.0616 1.41539H12.677C14.4616 1.41539 15.9385 2.89231 15.9385 4.67692V8.36923C15.9385 8.61539 16.1231 8.86154 16.4308 8.86154H18.277C18.5231 8.86154 18.7693 8.67693 18.7693 8.36923C18.7693 8.06154 18.5846 7.87693 18.277 7.87693H16.8616V4.61539C16.8616 3.32308 16.2462 2.15385 15.3231 1.35385H36.1231C38.0308 1.35385 38.7693 3.01539 38.7693 4.61539V7.87693H20.6154C20.3693 7.87693 20.1231 8.06154 20.1231 8.36923C20.1231 8.67693 20.3077 8.86154 20.6154 8.86154H34.3385V35.5077C34.3385 37.2923 32.8616 38.7692 31.077 38.7692C29.2923 38.7692 27.8154 37.2923 27.8154 35.5077V31.8154C27.8154 31.5692 27.6308 31.3231 27.3231 31.3231H8.80003V28.6769C8.80003 28.4308 8.61542 28.1846 8.30772 28.1846C8.00003 28.1846 7.81542 28.3692 7.81542 28.6769V31.3231H4.61542C4.36926 31.3231 4.12311 31.5077 4.12311 31.8154V35.5077C4.12311 37.7846 5.96926 39.6923 8.30772 39.6923H31.077C33.3539 39.6923 35.2616 37.8462 35.2616 35.5077V8.8H39.1385C39.3846 8.8 39.6308 8.61539 39.6308 8.30769V4.61539C39.5693 2.09231 38.1539 0.49231 36 0.49231ZM8.30772 38.6462C6.52311 38.6462 5.04618 37.1692 5.04618 35.3846V32.1231H26.8923V35.3846C26.8923 36.6769 27.5077 37.8462 28.4308 38.6462H8.30772Z" fill="white"/>
<path d="M18.7692 21.7231H32.3077C32.5538 21.7231 32.8 21.5385 32.8 21.2308C32.8 20.9231 32.6154 20.7385 32.3077 20.7385H18.7692C18.5231 20.7385 18.2769 20.9231 18.2769 21.2308C18.2769 21.5385 18.5231 21.7231 18.7692 21.7231Z" fill="white"/>
<path d="M18.3384 18.1539C18.3384 18.4 18.5231 18.6462 18.8307 18.6462H32.3692C32.6154 18.6462 32.8615 18.4615 32.8615 18.1539C32.8615 17.8462 32.6769 17.6615 32.3692 17.6615H18.8307C18.5231 17.7231 18.3384 17.9077 18.3384 18.1539Z" fill="white"/>
<path d="M24.9231 15.5077H32.3077C32.5539 15.5077 32.8 15.3231 32.8 15.0154C32.8 14.7077 32.6154 14.5231 32.3077 14.5231H24.9231C24.6769 14.5231 24.4308 14.7077 24.4308 15.0154C24.4308 15.3231 24.6769 15.5077 24.9231 15.5077Z" fill="white"/>
<path d="M24.9231 12.4308H32.3077C32.5539 12.4308 32.8 12.2462 32.8 11.9385C32.8 11.6308 32.6154 11.4462 32.3077 11.4462H24.9231C24.6769 11.4462 24.4308 11.6308 24.4308 11.9385C24.4308 12.2462 24.6769 12.4308 24.9231 12.4308Z" fill="white"/>
<path d="M18.7692 24.8H32.3077C32.5538 24.8 32.8 24.6154 32.8 24.3077C32.8 24 32.6154 23.8154 32.3077 23.8154H18.7692C18.5231 23.8154 18.2769 24 18.2769 24.3077C18.2769 24.6154 18.5231 24.8 18.7692 24.8Z" fill="white"/>
<path d="M18.7692 27.8769H32.3077C32.5538 27.8769 32.8 27.6923 32.8 27.3846C32.8 27.0769 32.6154 26.8923 32.3077 26.8923H18.7692C18.5231 26.8923 18.2769 27.0769 18.2769 27.3846C18.2769 27.6923 18.5231 27.8769 18.7692 27.8769Z" fill="white"/>
<path d="M8.30769 26.6462C10.4615 26.6462 12.4308 25.7846 13.8462 24.3692C15.2615 22.9538 16.1231 20.9846 16.1231 18.8308C16.1231 14.5231 12.6154 10.9538 8.24615 10.9538C3.87692 10.9538 0.49231 14.4615 0.49231 18.7692C0.49231 23.0769 4 26.6462 8.30769 26.6462ZM13.5385 23.3231L9.47692 19.2615H15.2615C15.0769 20.8 14.4615 22.2154 13.5385 23.3231ZM15.2 18.3385H8.8V11.8769C12.2462 12.1231 14.9538 14.8308 15.2 18.3385ZM7.87692 11.8769V18.7692C7.87692 18.8308 7.87692 18.8923 7.93846 18.9538C7.93846 19.0154 8 19.0769 8.06154 19.0769L12.9231 23.9385C11.6923 24.9846 10.0923 25.6615 8.36923 25.6615C4.55385 25.6615 1.41539 22.5846 1.41539 18.7077C1.41539 15.1385 4.24616 12.1231 7.87692 11.8769Z" fill="white"/>
<path d="M19.3846 8.73846C19.5077 8.73846 19.6307 8.67693 19.6923 8.61539C19.7538 8.55385 19.8154 8.43077 19.8154 8.3077C19.8154 8.18462 19.7538 8.06154 19.6923 8C19.6307 7.93846 19.6307 7.93846 19.5077 7.87693C19.3846 7.81539 19.2615 7.81539 19.1384 7.87693C19.0769 7.87693 19.0154 7.93846 19.0154 8C18.9538 8.06154 18.9538 8.12308 18.8923 8.18462C18.8923 8.24616 18.8307 8.3077 18.8307 8.36923C18.8307 8.43077 18.8307 8.49231 18.8307 8.55385C18.8307 8.61539 18.8923 8.67693 18.9538 8.67693C19.1384 8.73846 19.2615 8.73846 19.3846 8.73846Z" fill="white"/>
</g>
<defs>
<clipPath id="clip0_7_184">
<rect width="40" height="40" fill="white"/>
</clipPath>
</defs>
</svg>
