<svg width="41" height="41" viewBox="0 0 41 41" fill="none" xmlns="http://www.w3.org/2000/svg">
<path d="M20.0185 22.137C18.1625 22.137 16.3483 21.5806 14.8052 20.5381C13.262 19.4956 12.0593 18.0139 11.3491 16.2803C10.6388 14.5467 10.453 12.6392 10.8151 10.7988C11.1771 8.95847 12.0709 7.268 13.3832 5.94118C14.6955 4.61436 16.3675 3.71078 18.1878 3.34471C20.008 2.97865 21.8948 3.16653 23.6094 3.88459C25.3241 4.60266 26.7896 5.81867 27.8207 7.37885C28.8518 8.93902 29.4021 10.7733 29.4021 12.6497C29.4021 13.8956 29.1594 15.1293 28.6879 16.2803C28.2163 17.4314 27.5251 18.4772 26.6537 19.3582C25.7824 20.2392 24.7479 20.938 23.6094 21.4148C22.471 21.8916 21.2507 22.137 20.0185 22.137ZM20.0185 4.42739C18.41 4.42739 16.8377 4.90962 15.5003 5.8131C14.1629 6.71658 13.1205 8.00072 12.505 9.50315C11.8894 11.0056 11.7284 12.6588 12.0422 14.2538C12.356 15.8488 13.1305 17.3138 14.2679 18.4637C15.4052 19.6137 16.8543 20.3968 18.4319 20.714C20.0094 21.0313 21.6446 20.8684 23.1306 20.2461C24.6167 19.6238 25.8868 18.5699 26.7804 17.2178C27.674 15.8656 28.151 14.2759 28.151 12.6497C28.1477 10.47 27.2898 8.3806 25.7654 6.83934C24.2409 5.29808 22.1743 4.43073 20.0185 4.42739Z" fill="white"/>
<path d="M32.5301 36.0516H7.50693C7.34102 36.0516 7.1819 35.985 7.06458 35.8664C6.94726 35.7478 6.88135 35.5869 6.88135 35.4192V27.8293C6.87532 27.7705 6.87532 27.7111 6.88135 27.6522C7.48191 25.5524 9.38367 24.0977 11.1353 22.8201C11.5482 22.5038 11.936 22.2129 12.2989 21.9093C12.4234 21.8118 12.5792 21.7644 12.7363 21.776C12.8933 21.7877 13.0406 21.8577 13.1497 21.9725C14.0407 22.8877 15.1137 23.6011 16.2979 24.0656C17.482 24.5301 18.7502 24.735 20.0185 24.6669C21.2791 24.7326 22.5391 24.5264 23.7148 24.0618C24.8905 23.5973 25.9549 22.8851 26.8373 21.9725C26.9464 21.8577 27.0937 21.7877 27.2507 21.776C27.4078 21.7644 27.5636 21.8118 27.6881 21.9093C28.051 22.2129 28.4388 22.5038 28.8517 22.8074C30.5658 24.0724 32.5051 25.5524 33.1056 27.6522C33.1117 27.7111 33.1117 27.7705 33.1056 27.8293V35.4192C33.1061 35.5785 33.0471 35.7322 32.9404 35.8494C32.8337 35.9667 32.6872 36.0389 32.5301 36.0516ZM8.13251 34.7867H31.9045V27.9179C31.3915 26.2734 29.6649 24.9705 28.151 23.832L27.3878 23.2501C25.376 25.0894 22.7282 26.0529 20.0185 25.9319C17.3098 26.046 14.6646 25.0834 12.6492 23.2501L11.8735 23.832C10.3471 24.9705 8.62046 26.2734 8.12 27.9179L8.13251 34.7867Z" fill="white"/>
</svg>
