<svg width="40" height="35" viewBox="0 0 40 35" fill="none" xmlns="http://www.w3.org/2000/svg">
<g clip-path="url(#clip0_7_170)">
<path d="M0 23.1659C0.0512 22.8638 0.1056 22.5617 0.152 22.2578C0.2944 21.3238 0.7088 20.6367 1.4736 20.2001C2.8352 19.4246 4.2752 18.907 5.7696 18.6565C6.952 18.4594 7.7216 17.787 8.2064 16.5675C8.1552 16.4994 8.0928 16.4294 8.04 16.352C7.5968 15.6999 7.0672 15.0994 6.7296 14.3846C5.6832 12.1741 4.9728 9.84015 5.0848 7.27778C5.192 4.84436 5.9488 2.75541 7.6944 1.24304C10.1024 -0.842219 14.9952 -0.41485 16.776 3.38725C16.7936 3.42594 16.8208 3.45725 16.8576 3.51436C19.0384 2.65778 21.2144 2.66147 23.3728 3.62857C23.6224 3.2141 23.848 2.78304 24.1232 2.39804C25.5056 0.473044 27.3488 -0.158798 29.4544 0.0475179C31.3504 0.231728 32.9504 1.09199 34.0272 2.93778C34.7792 4.22357 35.1008 5.67331 35.112 7.22068C35.136 10.2767 34.2256 12.9736 32.6992 15.4383C32.5136 15.7386 32.288 16.0204 32.0416 16.2525C31.8 16.4809 31.7808 16.6633 31.9472 16.9525C32.4304 17.8017 33.0032 18.4225 33.96 18.5883C35.4528 18.8462 36.8912 19.3509 38.2816 20.0509C39.3488 20.587 39.8352 21.5173 39.9232 22.7754C39.968 23.4073 39.9904 24.0428 40 24.6783C40.0096 25.3138 39.7776 25.568 39.2256 25.568C35.5152 25.568 31.8032 25.5662 28.0928 25.5662C27.1488 25.5662 26.2032 25.5662 25.2576 25.5662C25.2496 25.6141 25.24 25.6638 25.2304 25.7136C25.5552 25.8112 25.8768 25.9309 26.2048 26.0009C28.0624 26.4025 29.8704 26.9662 31.6128 27.8265C32.984 28.5062 33.6128 29.6723 33.6816 31.3062C33.7072 31.9123 33.736 32.5165 33.744 33.1225C33.7536 33.8446 33.5424 34.0767 32.9056 34.0767C27.1776 34.0767 21.448 34.0767 15.7184 34.0767C12.8544 34.0767 9.9888 34.0767 7.1248 34.0767C6.4368 34.0767 6.2192 33.8575 6.256 33.0765C6.2992 32.1351 6.3632 31.192 6.4832 30.2599C6.6064 29.2928 7.1072 28.6057 7.8704 28.1396C9.3632 27.2296 10.9696 26.7009 12.608 26.2754C13.128 26.1409 13.656 26.0488 14.176 25.9162C14.3808 25.8646 14.5744 25.7559 14.7728 25.6749C14.7632 25.638 14.7552 25.6012 14.7472 25.5644C13.6864 25.5644 12.6256 25.5644 11.5648 25.5644C7.9968 25.5644 4.4304 25.5607 0.8624 25.5717C0.4928 25.5736 0.2048 25.4741 0 25.1186C0 24.4683 0 23.8162 0 23.1659ZM32.4848 32.6399C32.4672 32.2678 32.4288 31.9325 32.4384 31.5973C32.4704 30.3207 31.968 29.5083 30.9136 29.0201C29.3392 28.2925 27.7264 27.7399 26.0544 27.4304C25.0704 27.2499 24.2096 26.8151 23.6064 25.9365C23.0672 25.1536 22.6304 24.273 22.1936 23.4073C21.9872 22.9965 22.0976 22.6888 22.4512 22.4236C23.2448 21.8249 23.888 21.0567 24.4144 20.1651C25.8608 17.7115 26.656 15.0201 26.6368 12.047C26.6256 10.4867 26.3984 8.9762 25.6512 7.63883C24.4576 5.50015 22.6784 4.51647 20.4944 4.3341C16.4336 3.99699 13.4368 7.09725 13.3568 11.7136C13.32 13.9388 13.7008 16.0517 14.5344 18.067C15.2528 19.8059 16.1552 21.3662 17.5904 22.4586C17.9072 22.6999 17.992 23.0628 17.8 23.4294C17.3552 24.273 16.928 25.1407 16.4 25.918C15.8912 26.6659 15.1824 27.1504 14.3424 27.342C13.5776 27.5152 12.7952 27.6294 12.0576 27.9001C10.848 28.3404 9.6624 28.8636 8.4848 29.4051C8.2224 29.5249 7.9488 29.8196 7.832 30.1125C7.5168 30.9009 7.5392 31.7686 7.5104 32.6399C15.84 32.6399 24.1296 32.6399 32.4848 32.6399ZM24.512 4.31383C24.6368 4.41515 24.7408 4.49989 24.8448 4.58831C25.6416 5.27173 26.3152 6.07673 26.808 7.07699C27.8816 9.24883 28.0768 11.592 27.7824 13.9923C27.3344 17.6433 26.0576 20.8357 23.5648 23.3133C23.8592 24.1478 23.8592 24.1478 24.6352 24.1478C29.1776 24.1459 33.72 24.1459 38.2624 24.1459C38.4128 24.1459 38.5632 24.1459 38.7472 24.1459C38.7232 23.772 38.6816 23.4644 38.6864 23.1567C38.6992 22.1417 38.2768 21.5375 37.44 21.1709C36.16 20.6091 34.8544 20.1817 33.504 19.9294C32.7808 19.793 32.136 19.467 31.6864 18.8278C31.2112 18.1554 30.8096 17.4094 30.424 16.6633C30.2144 16.258 30.352 16.0038 30.6736 15.6723C31.1232 15.208 31.6144 14.7549 31.9392 14.1875C33.2544 11.8959 34.0336 9.40725 33.8256 6.62199C33.6912 4.82962 33.1008 3.29883 31.6976 2.31331C30.44 1.43094 29.0608 1.25594 27.6352 1.55989C26.1968 1.86752 25.1856 2.83462 24.512 4.31383ZM15.6928 4.06699C15.5728 3.8662 15.4448 3.62489 15.2912 3.40752C14.424 2.17883 13.2512 1.61699 11.9056 1.46962C9.768 1.23752 7.9328 2.11068 6.9216 4.52752C6.5264 5.46883 6.3536 6.45436 6.3344 7.4841C6.2864 9.95989 7.0144 12.1833 8.1248 14.2575C8.4064 14.7844 8.8544 15.2099 9.272 15.6225C9.6784 16.0241 9.7664 16.2359 9.5328 16.8033C8.8048 18.5754 7.7536 19.8262 5.9104 20.0749C4.6208 20.2499 3.3728 20.7178 2.2032 21.3883C1.9664 21.5246 1.6736 21.6904 1.568 21.9336C1.2736 22.6151 1.2816 23.3741 1.2672 24.1441C3.0352 24.1441 4.752 24.1441 6.4688 24.1441C9.5664 24.1441 12.6656 24.1404 15.7632 24.1496C15.992 24.1496 16.1296 24.0778 16.2144 23.842C16.2816 23.6559 16.3648 23.4773 16.4336 23.3133C16.0992 22.9541 15.7712 22.6575 15.4992 22.3038C13.0368 19.0986 11.9296 15.3536 12.1376 11.1204C12.2384 9.09225 12.8288 7.24278 14.0544 5.72489C14.5344 5.13173 15.1152 4.64541 15.6928 4.06699Z" fill="white"/>
</g>
<defs>
<clipPath id="clip0_7_170">
<rect width="40" height="35" fill="white"/>
</clipPath>
</defs>
</svg>
